<mxfile host="app.diagrams.net" modified="2023-11-18T01:58:17.709Z" agent="Mozilla/5.0 (Windows NT 10.0; Win64; x64) AppleWebKit/537.36 (KHTML, like Gecko) Chrome/119.0.0.0 Safari/537.36" etag="wvb-6MhnWJ2t2wAlPh9v" version="22.1.3" type="github">
  <diagram name="Página-1" id="oD-YLq-MhvnjV4YYsH_N">
    <mxGraphModel dx="1434" dy="800" grid="1" gridSize="10" guides="1" tooltips="1" connect="1" arrows="1" fold="1" page="1" pageScale="1" pageWidth="827" pageHeight="1169" math="0" shadow="0">
      <root>
        <mxCell id="0" />
        <mxCell id="1" parent="0" />
        <mxCell id="MYf8DOTjzPSC4UsA_pSK-2" value="INICIO" style="rounded=0;whiteSpace=wrap;html=1;labelBackgroundColor=none;fillColor=#EEEEEE;strokeColor=#FFFFFF;fontColor=#1A1A1A;" vertex="1" parent="1">
          <mxGeometry x="354" y="140" width="120" height="60" as="geometry" />
        </mxCell>
        <mxCell id="MYf8DOTjzPSC4UsA_pSK-5" value="" style="edgeStyle=orthogonalEdgeStyle;rounded=0;orthogonalLoop=1;jettySize=auto;html=1;exitX=0.5;exitY=1;exitDx=0;exitDy=0;entryX=0.5;entryY=0;entryDx=0;entryDy=0;labelBackgroundColor=none;strokeColor=#FFFFFF;fontColor=default;" edge="1" parent="1" source="MYf8DOTjzPSC4UsA_pSK-2" target="MYf8DOTjzPSC4UsA_pSK-4">
          <mxGeometry relative="1" as="geometry">
            <mxPoint x="420" y="230" as="targetPoint" />
          </mxGeometry>
        </mxCell>
        <mxCell id="MYf8DOTjzPSC4UsA_pSK-7" value="" style="edgeStyle=orthogonalEdgeStyle;rounded=0;orthogonalLoop=1;jettySize=auto;html=1;labelBackgroundColor=none;strokeColor=#FFFFFF;fontColor=default;" edge="1" parent="1" source="MYf8DOTjzPSC4UsA_pSK-4" target="MYf8DOTjzPSC4UsA_pSK-6">
          <mxGeometry relative="1" as="geometry" />
        </mxCell>
        <mxCell id="MYf8DOTjzPSC4UsA_pSK-4" value="Procesamiento de Gestos en Python" style="rounded=0;whiteSpace=wrap;html=1;fillColor=#EEEEEE;strokeColor=#FFFFFF;labelBackgroundColor=none;fontColor=#1A1A1A;" vertex="1" parent="1">
          <mxGeometry x="354" y="230" width="120" height="60" as="geometry" />
        </mxCell>
        <mxCell id="MYf8DOTjzPSC4UsA_pSK-9" value="" style="edgeStyle=orthogonalEdgeStyle;rounded=0;orthogonalLoop=1;jettySize=auto;html=1;labelBackgroundColor=none;strokeColor=#FFFFFF;fontColor=default;" edge="1" parent="1" source="MYf8DOTjzPSC4UsA_pSK-6" target="MYf8DOTjzPSC4UsA_pSK-8">
          <mxGeometry relative="1" as="geometry" />
        </mxCell>
        <mxCell id="MYf8DOTjzPSC4UsA_pSK-6" value="Generación de Comandos " style="rounded=0;whiteSpace=wrap;html=1;fillColor=#EEEEEE;strokeColor=#FFFFFF;labelBackgroundColor=none;fontColor=#1A1A1A;" vertex="1" parent="1">
          <mxGeometry x="354" y="310" width="120" height="60" as="geometry" />
        </mxCell>
        <mxCell id="MYf8DOTjzPSC4UsA_pSK-13" value="" style="edgeStyle=orthogonalEdgeStyle;rounded=0;orthogonalLoop=1;jettySize=auto;html=1;labelBackgroundColor=none;strokeColor=#FFFFFF;fontColor=default;" edge="1" parent="1" source="MYf8DOTjzPSC4UsA_pSK-8" target="MYf8DOTjzPSC4UsA_pSK-11">
          <mxGeometry relative="1" as="geometry" />
        </mxCell>
        <mxCell id="MYf8DOTjzPSC4UsA_pSK-8" value="Envío Serial a Arduino " style="rounded=0;whiteSpace=wrap;html=1;fillColor=#EEEEEE;strokeColor=#FFFFFF;labelBackgroundColor=none;fontColor=#1A1A1A;" vertex="1" parent="1">
          <mxGeometry x="354" y="390" width="120" height="60" as="geometry" />
        </mxCell>
        <mxCell id="MYf8DOTjzPSC4UsA_pSK-10" value="Interpretación de Comandos en Arduino" style="rounded=0;whiteSpace=wrap;html=1;fillColor=#EEEEEE;strokeColor=#FFFFFF;labelBackgroundColor=none;fontColor=#1A1A1A;" vertex="1" parent="1">
          <mxGeometry x="354" y="470" width="120" height="60" as="geometry" />
        </mxCell>
        <mxCell id="MYf8DOTjzPSC4UsA_pSK-17" value="" style="edgeStyle=orthogonalEdgeStyle;rounded=0;orthogonalLoop=1;jettySize=auto;html=1;labelBackgroundColor=none;strokeColor=#FFFFFF;fontColor=default;" edge="1" parent="1" source="MYf8DOTjzPSC4UsA_pSK-11" target="MYf8DOTjzPSC4UsA_pSK-15">
          <mxGeometry relative="1" as="geometry" />
        </mxCell>
        <mxCell id="MYf8DOTjzPSC4UsA_pSK-11" value="Control de los Servomotores" style="rounded=0;whiteSpace=wrap;html=1;fillColor=#EEEEEE;strokeColor=#FFFFFF;labelBackgroundColor=none;fontColor=#1A1A1A;" vertex="1" parent="1">
          <mxGeometry x="354" y="554.5" width="120" height="60" as="geometry" />
        </mxCell>
        <mxCell id="MYf8DOTjzPSC4UsA_pSK-16" value="" style="edgeStyle=orthogonalEdgeStyle;rounded=0;orthogonalLoop=1;jettySize=auto;html=1;labelBackgroundColor=none;strokeColor=#FFFFFF;fontColor=default;" edge="1" parent="1" source="MYf8DOTjzPSC4UsA_pSK-14" target="MYf8DOTjzPSC4UsA_pSK-15">
          <mxGeometry relative="1" as="geometry" />
        </mxCell>
        <mxCell id="MYf8DOTjzPSC4UsA_pSK-14" value="Movimiento de la Prótesis" style="rounded=0;whiteSpace=wrap;html=1;fillColor=#EEEEEE;strokeColor=#FFFFFF;labelBackgroundColor=none;fontColor=#1A1A1A;" vertex="1" parent="1">
          <mxGeometry x="354" y="640" width="120" height="60" as="geometry" />
        </mxCell>
        <mxCell id="MYf8DOTjzPSC4UsA_pSK-15" value="FIN" style="rounded=0;whiteSpace=wrap;html=1;labelBackgroundColor=none;fillColor=#EEEEEE;strokeColor=#FFFFFF;fontColor=#1A1A1A;" vertex="1" parent="1">
          <mxGeometry x="354" y="720" width="120" height="60" as="geometry" />
        </mxCell>
      </root>
    </mxGraphModel>
  </diagram>
</mxfile>
